<svg class="svg-icon" style="width: 1em; height: 1em;vertical-align: middle;fill: currentColor;overflow: hidden;" viewBox="0 0 1024 1024" version="1.1" xmlns="http://www.w3.org/2000/svg"><path d="M399 161v217.6L299.1 558l349.8-119.1-20-67.2V161z" fill="#DDF0F0" /><path d="M642.6 427.6L292.8 546.7 102.3 814.3s-49.2 98.2 70.9 129.4c120.1 31.2 678 0 678 0s110.8-12.4 70.5-130.1l-279.1-386z" fill="#54D3CC" /><path d="M851.2 958.7h-678c-36.8 0-69.3-19.2-86.9-51.5-17.7-32.2-16.4-70 3.4-101l0.4-0.6L361 425.2c11-17.3 16.8-37.3 16.8-57.8V134.7h259.9v225.6c0 20.9 6 41.2 17.4 58.8l279 385.9 0.2 0.3c20.2 31 21.7 68.9 4.1 101.4s-50.2 52-87.2 52zM114.7 822.6c-13.6 21.6-14.4 47.7-2.2 70.1 12.3 22.5 35 35.9 60.6 35.9h678c25.8 0 48.5-13.5 60.8-36.2 12.2-22.6 11.2-48.9-2.7-70.4l-279-385.9-0.2-0.3c-14.7-22.5-22.4-48.6-22.4-75.4V164.7H407.7v202.5c0 26.4-7.5 52.1-21.7 74.3l-0.4 0.6-270.9 380.5z" fill="#2A4964" /><path d="M646.2 160.5h-268c-22.5 0-41-18.4-41-41 0-22.5 18.4-41 41-41h268c22.5 0 41 18.4 41 41 0 22.5-18.4 41-41 41z" fill="#DDF0F0" /><path d="M646.2 175.5h-268c-30.9 0-56-25.1-56-56s25.1-56 56-56h268c30.9 0 56 25.1 56 56s-25.1 56-56 56z m-268-82c-14.3 0-26 11.7-26 26s11.7 26 26 26h268c14.3 0 26-11.7 26-26s-11.7-26-26-26h-268zM466.4 807.7H127.5c-8.3 0-15-6.7-15-15s6.7-15 15-15h338.9c8.3 0 15 6.7 15 15s-6.7 15-15 15zM466.4 727.7H175.8c-8.3 0-15-6.7-15-15s6.7-15 15-15h290.6c8.3 0 15 6.7 15 15s-6.7 15-15 15z" fill="#294966" /><path d="M526.4 225v109.6c0 30.9-0.1 63.1 11.6 92.2 6.5 16.3 15.4 30.5 25.6 44.8 11.5 16 23 32.1 34.5 48.1 12.3 17.2 24.5 34.3 36.9 51.5l66.9 93c27.5 38.2 55 76.4 82.5 114.5 19.9 27.6 39.8 55.3 59.7 82.9 1.3 1.8 2.6 3.7 3.9 5.5 5.5 7.6 15.9 12.1 24.6 6.5 7.6-4.9 12.3-16.4 6.5-24.6-17.9-25-35.9-49.9-53.8-74.9l-81-112.5c-23.7-32.9-47.4-65.8-71-98.7-8-11.1-15.9-22.2-23.9-33.3l-33.9-47.4c-11-15.4-22.9-30.5-32.9-46.5-2.1-3.3-4-6.7-5.8-10.2-0.8-1.5-1.6-3.1-2.3-4.7-0.3-0.7-0.6-1.3-0.9-2-0.2-0.5-1.8-4.2-0.8-1.8 0.8 2.1 0-0.2-0.2-0.5-0.3-0.9-0.7-1.8-1-2.6-0.6-1.5-1.1-3.1-1.6-4.6-1.1-3.5-2.1-7-3-10.6-0.7-3.1-1.4-6.3-1.9-9.5-0.2-1.1-1.1-3.7-0.7-4.8-0.6 1.9 0.3 2.7 0.1 0.6-0.1-1.2-0.3-2.4-0.4-3.5-0.7-7.4-1.1-14.8-1.3-22.3-0.9-35.3-0.2-70.6-0.2-105.9V225c0-9.4-8.3-18.4-18-18-9.9 0.4-18.2 7.9-18.2 18z" fill="#FFFFFF" /><path d="M466.4 647.7H232.7c-8.3 0-15-6.7-15-15s6.7-15 15-15h233.7c8.3 0 15 6.7 15 15s-6.7 15-15 15z" fill="#294966" /></svg>